<?xml version="1.0" standalone="no"?>
<!DOCTYPE svg PUBLIC "-//W3C//DTD SVG 20010904//EN"
 "http://www.w3.org/TR/2001/REC-SVG-20010904/DTD/svg10.dtd">
<svg version="1.0" xmlns="http://www.w3.org/2000/svg"
 width="260.000000pt" height="260.000000pt" viewBox="0 0 260.000000 260.000000"
 preserveAspectRatio="xMidYMid meet">
<metadata>
Created by potrace 1.11, written by Peter Selinger 2001-2013
</metadata>
<g transform="translate(0.000000,260.000000) scale(0.100000,-0.100000)"
fill="#000000" stroke="none">
<path d="M1257 2330 c-16 -5 -34 -13 -40 -18 -7 -5 -70 -40 -142 -77 -71 -37
-152 -80 -180 -95 -27 -15 -104 -55 -170 -90 -66 -34 -156 -82 -200 -105 -100
-54 -205 -109 -365 -192 -128 -66 -160 -91 -160 -124 0 -19 85 -93 120 -104
11 -4 20 -14 21 -23 0 -9 0 -76 0 -147 l1 -131 -41 -41 c-36 -36 -41 -45 -36
-73 3 -18 10 -41 16 -52 6 -11 8 -36 4 -56 -3 -20 -8 -147 -11 -282 -4 -174
-11 -272 -24 -340 -10 -52 -15 -99 -10 -103 4 -5 17 -6 29 -2 16 5 21 15 22
43 0 20 4 55 8 77 l9 40 2 -45 c3 -66 9 -122 14 -128 3 -2 12 -2 21 2 13 5 15
19 9 98 -5 67 -3 90 4 83 6 -6 14 -48 16 -94 5 -84 15 -109 35 -96 8 4 9 37 6
98 -6 102 2 101 30 -3 20 -73 34 -94 58 -84 21 8 21 15 1 62 -9 20 -22 78 -30
127 -16 109 -21 138 -34 190 -27 111 -39 201 -41 302 -1 57 3 80 20 108 32 55
28 90 -16 130 l-37 34 -2 136 c-1 74 1 135 4 135 3 0 66 -41 141 -92 75 -50
190 -128 256 -173 66 -44 237 -152 380 -240 143 -87 279 -171 301 -186 69 -47
91 -45 166 9 37 26 124 86 195 134 229 154 367 250 417 290 47 37 67 43 72 22
2 -5 -79 -64 -179 -132 -100 -68 -209 -142 -242 -166 -225 -160 -320 -220
-349 -219 -27 0 -83 27 -160 76 -137 86 -276 175 -454 291 -73 47 -137 86
-143 86 -5 0 -9 3 -9 8 0 4 -20 19 -45 32 -35 19 -49 22 -63 14 -26 -17 -122
-162 -116 -177 2 -7 39 -33 82 -57 72 -41 353 -227 467 -308 46 -34 307 -250
366 -303 102 -94 120 -109 129 -109 15 0 105 83 355 329 227 223 349 336 412
380 27 18 40 21 82 15 38 -5 57 -3 75 9 43 29 116 111 116 133 0 22 -110 129
-180 174 -22 14 -38 28 -37 32 2 7 178 137 315 233 73 51 94 83 75 114 -9 17
-77 53 -253 135 -58 27 -183 87 -278 133 -96 46 -175 83 -177 83 -1 0 -81 38
-176 84 -242 116 -414 196 -420 195 -2 0 -17 -5 -32 -9z m54 -570 c30 -16 25
-58 -8 -71 -23 -9 -37 -6 -80 16 -29 15 -53 29 -53 31 0 3 3 3 8 1 4 -3 23 3
42 13 42 21 64 24 91 10z m-1141 -241 c0 -11 -4 -18 -10 -14 -5 3 -7 12 -3 20
7 21 13 19 13 -6z"/>
</g>
</svg>
